<?xml version="1.0" encoding="utf-8"?>
<!-- Generator: Adobe Illustrator 28.0.0, SVG Export Plug-In . SVG Version: 6.00 Build 0)  -->
<svg version="1.1" id="Layer_1" xmlns="http://www.w3.org/2000/svg" xmlns:xlink="http://www.w3.org/1999/xlink" x="0px" y="0px"
	 viewBox="0 0 1918.7 1758.1" style="enable-background:new 0 0 1918.7 1758.1;" xml:space="preserve">
<style type="text/css">
	.st0{fill:none;}
	.st1{font-family:'ArialMT';}
	.st2{font-size:12px;}
	.st3{enable-background:new    ;}
	.st4{font-family:'Hobeaux-Semibold';}
	.st5{font-size:234px;}
</style>
<g>
	<path d="M1308,1125.2c-13,32.4-30.4,61-28.9,96.6c1.7,39.2-15.5,72.8-41.8,100c-36.8,38-55.8,83.2-63.5,134.3
		c-1.8,11.6-4.6,23-7.1,34.9c10.2-5.8,20-11.1,29.5-16.9c8.6-5.3,20.7-5.1,26.5-15.7c3.8,7.3,10,4.7,16.2,1.6
		c13.7-6.7,29.6,1.6,31.5,16.7c1.1,8.9-4.6,14.1-11.7,17.4c-8.2,3.8-16.8,6.8-25.4,9.5c-23.6,7.4-41,22.7-55.6,41.8
		c10.7,9.7,17.9,10.4,29.8,4.1c13.5-7.1,27.1-14.2,41.1-20.2c9.9-4.2,13.1-2.9,22.8,3.5c-10.7,14.3-21.3,28.6-33.2,44.4
		c5.9,1.7,9.8,2.8,14.1,4.1c13.8-23.1,27.1-46.1,57.2-54.8c-7,8.1-13,14-17.9,20.8c-4.7,6.5-8.2,13.9-11.2,21.8
		c15.8-16,31.6-31.3,54.7-35.9c-36.8,23.3-48.7,58.2-47,99.6c9.7-43.2,33.6-74.3,75.8-90.4c-28.2,16.4-45.4,40-48.2,75.9
		c21.1-31.7,46-53.1,84.3-52.5c-21.2,7.3-36.8,21.1-47.7,40.5c13.4-11.7,26.3-24.2,45.4-26.5c-7.2,6-14.6,11.1-20.7,17.6
		c-6.4,6.8-11.5,14.8-15.7,24.1c4-2.1,8-4.2,12.1-6.3c0.4,0.4,0.8,0.8,1.2,1.2c-2.9,3.7-5.9,7.3-8.7,11.1c-2.6,3.7-5,7.5-6.9,11.7
		c41.9-32.4,59.5-40.3,81.9-36c-7.5,3.4-15.2,6-21.9,10.1c-6.8,4.2-12.6,10.1-17.9,16.1c9.7-3.1,19.3-6.3,29-9.4
		c0.1,0.5,0.3,1.1,0.4,1.6c-11.5,6.7-23.8,12.4-34.3,20.5c-10.6,8.2-17.5,19.8-20.5,34.3c11.3-5.5,21.5-10.5,31.7-15.5
		c0.5,0.9,1,1.7,1.5,2.6c-2.2,2.4-4.5,4.7-7.7,8.2c4.6,0,7.8,0,12.4,0c-1.6,2.8-2.6,4.5-4.1,7c4.7,0.3,8.8,0.5,15.6,0.9
		c-5.7,2.6-9.1,4.1-15,6.8c6.6,1.5,10.8,2.5,15.2,3.5c-3.5,9.1-10.9,12.1-18.9,15.6c-14.8,6.5-28.8,14.5-43.3,21.6
		c-4.1,2-8.4,3.4-14,3.4c4-6.3,7.9-12.7,11.9-19c-0.4-0.9-0.9-1.8-1.3-2.7c-14.3,2.6-28.6,5.3-44.9,8.3c3.5-9.9,6.6-18.5,9.6-27.1
		c-0.7-0.7-1.4-1.3-2.2-2c-5.9,5.1-11.7,10.4-17.8,15.1c-2.5,1.9-6.3,4.5-8.6,3.8c-21-6.7-42-10.3-64.3-0.7c0-7.3,0-12.6,0-17.8
		c-0.7-0.3-1.4-0.7-2.1-1c-4.3,6.1-8.6,12.2-13.2,18.8c-2.4-2.5-4.7-5-9-9.7c-0.4,8.6-0.7,14.9-1,21.9c-9.5,0-18.7,0-28.5,0
		c-1-5.1-1.9-9.6-3-15.2c-6.5,3.6-12.4,6.9-18.3,10.2c-2.4-9.3-4.5-17.4-6.6-25.6c-0.8,0-1.6,0-2.5-0.1c-3.1,6.9-6.3,13.9-9.8,21.5
		c-3.8-3-6.8-5.4-8.8-7c-3.8,1.4-7.1,4.1-10,3.6c-30.1-4.8-58.9,0.1-86.8,11.5c-1.8,0.7-3.6,1.2-6.8,2.2c1.4-4.8,2.5-8.5,3.5-12.3
		c-0.6-0.6-1.2-1.3-1.7-1.9c-11.3,7-22.7,14-36,22.3c0.8-8.5,1.3-14.9,2.2-24.5c-4.9,5.2-8.6,8-10.9,11.7
		c-5.2,8.3-11.7,7.9-20.2,5.6c-20.4-5.7-40.9-12.1-61.9-14.8c-21.7-2.8-43.9-1.5-65.9-2.2c-3.4-0.1-6.8-1.3-10.2-2
		c0-0.9,0.1-1.8,0.1-2.7c-3.6,2.2-7.2,4.4-12,7.3c-1.2-7.2-2.1-13.4-3.1-19.6c-0.9-0.2-1.9-0.3-2.8-0.5c-3.6,7.1-7.2,14.1-11.1,21.9
		c-3.7-3.3-6.8-6.1-10.9-9.7c-2.4,6.2-4.4,11.5-6.8,17.8c-4-3.1-7.5-5.7-12-9.2c-1.4,5.6-2.7,10.3-4.5,17.4
		c-10.2-1.7-20.8-2.4-30.6-5.3c-20-5.8-39.4-13.9-59.5-19.1c-11.2-2.9-23.5-3-35.1-2.2c-7.8,0.5-13.6-0.7-19.3-5.9
		c-4.9-4.4-10.6-7.8-17.3-12.6c0,5.5,0,9.1,0,14.7c-8.1-3.4-15.6-6.6-25.3-10.7c1.9,7.8,3.4,13.7,5.2,20.8c-9-2.8-17.5-5.5-26-8.1
		c-0.4,0.6-0.8,1.2-1.2,1.8c5.1,5.6,10.3,11.2,16.2,17.7c-9,4-17,2.5-24.7,0c-12.7-4.1-25.2-9.1-37.9-13.2
		c-7.7-2.5-15.7-3.9-23.9-7.3c3-0.8,6.1-1.6,11.2-2.9c-6.9-2.5-12.2-4.4-19.9-7.2c9.5-1.2,16.3-2.1,26.2-3.3
		c-4.7-3.3-7.7-5.4-10.6-7.5c0.4-0.6,0.7-1.2,1.1-1.7c8.4,2.4,16.8,4.7,25.6,7.2c-5.5-20.8-23.3-40.8-49.4-58.1
		c9.2,2.6,18.4,5.2,28.2,7.9c-8.4-11.7-8.4-11.7-40.8-26.3c36-2.6,66.1,11.2,103.9,46.8c-8.2-20.2-23.7-33.5-42.1-45
		c7.5,2.4,15,4.9,22.5,7.3c0.5-0.5,1-1,1.4-1.5c-11.6-10.3-23.2-20.6-35.3-31.3c17.7,2,31,13.9,46.4,21
		c-14.4-18.2-34.7-26.5-58.3-33.8c31.5-0.1,55.8,10.7,76.5,30.8c-0.1-16.9-14.7-36-46.2-61.5c20.8,7,37.6,20.1,52.2,36.1
		c5.3,5.8,9.7,12.4,15,18.3c2.9,3.3,6.7,5.8,11.2,7.6c-8.1-27.5-23.9-49.5-46.2-67.2c34,10.9,52.7,36.6,65.7,68c6.7,0,12.9,0,19.3,0
		c-17.1-23.9-29.7-52-59.7-64.1c0.2-0.9,0.3-1.9,0.5-2.8c9.6,0.6,19.3,0.2,28.6,2.2c24.3,5.1,45.6,17,65.5,31.6
		c6.2,4.6,6.3,4.5,13,1.6c-8.7-8.2-17.4-16.4-26.2-24.6c0.5-0.7,1-1.4,1.5-2.1c1.9,0.4,3.8,0.8,7.1,1.5c-0.3-5.7-0.7-11-0.7-16.3
		c0.1-9-0.9-18.2,1-26.8c2.6-12,12.4-13.3,23.3-10.8c9.3,2.1,15.2,10.6,25.1,10c0.9-1.6,1.9-3.5,2.5-4.6c2.4,3.7,4.2,7.6,7,10.6
		c3.4,3.6,7.7,6.4,11.9,9.8c0.7-1.7,1.2-3.1,1.9-4.9c2.4,2.7,4.6,5.3,6.8,7.7c0.6-0.5,1.5-1,1.5-1.4c1.3-30.6-2.1-60.6-10.6-90
		c-5-17.4-14.8-32.3-27.2-45.2c-32.7-34.1-52.3-74.2-59.8-120.9c-4.3-27-13-52.8-30.2-74.2c-9.3,1.3-18.1,3.7-26.9,3.7
		c-16.5,0-30.6,4.9-44.1,14.3c-20.9,14.7-44,22.7-70.1,19.4c-25.8-3.2-47.1-14.7-64.4-33.9c-10.1-11.2-9.4-24.5-7.3-38
		c2.2-14,3.6-28.2,7.2-41.9c2.2-8.3,6.8-16.8,12.4-23.3c16.6-19,34.4-36.8,51.4-55.4c17.6-19.2,37.1-35.3,62.9-42.3
		c18.8-5.1,37.4-5.1,55.7,2c5.5,2.1,11.1,4,16.7,5.8c10.5,3.5,20.9,3.8,31-1.5c17.2-9,34-10.4,51.8-0.8c6,3.3,14.5,3.8,21.6,2.9
		c15.3-1.9,28.3,2,39.2,12.2c15.4,14.2,26,31.6,31.1,52.1c5.9,23.8-3.1,45.8-24.8,56.9c-9.3,4.8-19.8,7.7-30.1,9.9
		c-13.3,2.9-24.2,9-33.5,18.6c-4.4,4.5-5.5,8.9-3.1,14.8c23.8,58.7,51.1,116,102.9,154.7c40.3,30.2,58.5,70.7,71,116.3
		c0.7,2.7,1.4,5.3,2.2,8c0.3,1.1,1,2.1,2.2,4.5c9.5-44.6,7.9-87.2-5.3-129.4c-7.8-24.8-16.2-49.5-22.1-74.8
		c-9.8-42.3-5.4-84.7,2.9-126.8c13.5-68.9,17.6-138.4,10.8-208.4c-0.9-8.9-3.4-17.9-6.8-26.1c-6.5-15.6-14.8-18.5-30-11.1
		c-18.1,8.8-35.6,18.6-53.9,26.8c-74.3,33.3-151.6,53.7-233.7,50.4c-51.1-2-100.3-12.5-143.4-41.7c-45.7-31-69.6-75.1-74.3-129.8
		c-3.9-45.6,3.1-89.6,18.2-132.6C358,587.1,381.2,536.4,415,491c30.1-40.5,68.4-69.8,118.9-80.1c14.2-2.9,29-4.4,43.4-4.1
		c48.7,0.7,93.5-12.2,135.2-36.7c19-11.2,38.1-22.4,56.5-34.5c84.6-55.3,178.2-70.5,277.2-64.4c52.1,3.2,98.4,20.4,139.7,51.9
		c7.2,5.5,14.9,10.4,22.5,15.4c20.6,13.4,43.3,20.2,67.9,21.5c14.5,0.8,29.2,1.9,43.4,4.9c35.9,7.7,60.9,28.5,72.4,64.1
		c3.9,12,7.3,24.1,10.9,36.2c9,30.5,28.7,51.1,57.8,63.1c7.6,3.2,15.3,6.5,23.1,9.1c56.3,18.6,88.3,58.3,96.4,115.9
		c5,35,7.3,70.7,7.2,106c-0.2,39.1-21.8,68.2-52.2,91.1c-33.5,25.2-72.5,35.5-113.5,39.9c-59.7,6.4-116.1-4.5-169.6-31.6
		c-9.1-4.6-18.9-7.9-28.4-11.8c-22.6-9.2-45.2-8.4-68.1-0.7c-14.5,4.9-29.2,9.9-44.2,12.6c-16.3,2.9-25.4,11.2-28,27.3
		c-4.7,29.6-10.1,59.1-13.8,88.8c-6.4,51-7.3,102.3-2.9,153.6c2.9,33.9,8.6,67.1,18.7,99.7c11.8,37.9,22.4,76.2,34.4,117.2
		c4.8-18.7,10.4-35.4,13-52.6c3.3-21.1,11.8-37.8,29.3-50.4c8.9-6.4,16.7-14.5,24.6-22.2c14-13.6,22.3-30.1,26.2-49.3
		c3.7-18.1,8.5-36,12.9-53.9c3.1-12.6,0.1-18.8-12.9-21.1c-13.2-2.3-26.6-2.8-40-4.2c-21.8-2.2-42.8-6.5-60.5-21
		c-29.3-24.1-34.2-60.4-10.3-90c21.9-27.2,49.3-46.7,85.1-50.8c8.8-1,18.5-0.8,26.9,1.7c28.5,8.4,56.9,6.6,85.6,2.4
		c26.3-3.8,52.7-5.1,78.3,4.2c26.9,9.7,49,25.9,62.9,51.1c9.8,17.7,20.9,32.9,39.5,42.4c12,6.2,18.4,18.5,18.9,31.2
		c0.8,18.3,1.3,37.5-3.1,55c-8.8,35.7-40.8,49.3-76.4,35.1c-21.6-8.6-45.5-12.7-67.7-12C1336.3,1141.6,1322.3,1136.1,1308,1125.2z
		 M609.6,1166.5c-5.8,4.5-11.6,8.9-18.1,14c10.7,4.1,15.8-3.9,23.1-7.4c-1.9-2.3-3.6-4.4-5.3-6.5c-19.1-3.7-36.3,5.1-48,25.5
		c9.7-6,18.1-11.7,27-16.4C595.1,1172,602.5,1169.5,609.6,1166.5z M718.9,885.7c6.4,0,13.1,1.1,19.2-0.3c25.2-5.9,50.2-12,75.1-19.1
		c7.3-2.1,15.1-5.8,18.5-14.8c-9.5-4.7-13.3,3.3-18.7,6.9c-5.2,3.5-10.2,7.4-15.3,11.2c-0.5-0.7-1-1.4-1.5-2.1
		c4.9-5.1,9.8-10.3,14.6-15.4c-0.5-0.6-1-1.1-1.5-1.7c-12.2,8.2-24.3,16.3-36.5,24.5c-0.5-0.8-1-1.6-1.6-2.4
		c8.6-7.8,17.2-15.5,25.8-23.3c-0.6-0.9-1.2-1.9-1.9-2.8c-5.5,3.3-11.4,6-16.3,10c-16.1,13.1-34.3,22.1-53.9,28.3
		c7.7-5.3,15.4-10.5,23.1-15.9c4.2-2.9,8.2-6.2,12.3-9.2c3.7-2.7,7.4-5.4,11.1-8.1c-0.6-0.8-1.1-1.6-1.7-2.4
		c-30.6,15.5-60.8,31.9-94.5,40c24.8-13.3,49.7-26.5,74.5-39.8c-0.4-1-0.9-2-1.3-3.1c-44.8,18.9-89.6,37.8-134.4,56.7
		c2.6-1.4,6-1,9.4-1.4c23-2.8,46.1-5.5,69.1-9C701.3,891.4,710,888.1,718.9,885.7z M457.1,1149.5c-8.5-5.2-13.9,0.5-19.1,5.7
		c-6.9,7-9.1,15.5-5.1,24.7c5.2,11.9,15.3,18.4,26.9,22.9c5.3,2.1,10.6,4.3,15.9,6.4c12.1,0.2,24.4,1.8,36.3,0.3
		c21.3-2.7,38.5-13.2,49.7-32.2c-2.8,1.1-5.4,2.6-7.3,4.7c-14.8,16.7-34.2,23-55.6,25.1c-7.7,0.8-15.5,1.5-23.2,2.3
		c4.9-2.1,9.7-4.7,14.8-6.1c9.6-2.7,19.3-4.6,29-6.9c-0.2-1.1-0.3-2.3-0.5-3.4c-5.8,0-11.5,0-17.3,0c0.1-0.4,0.2-0.8,0.2-1.2
		c1.7-0.6,3.4-1.1,5.1-1.7c-0.1-0.4-0.2-0.8-0.2-1.2c-15.7,1.8-31.3,3.6-47,5.4c-0.2-0.9-0.3-1.8-0.5-2.7c3.5-1.1,6.9-2.1,12.8-4
		c-5.4-1.2-8.2-1.8-9.1-2c13-3.7,27.4-7.7,41.8-11.8c-0.1-0.5-0.2-1-0.3-1.5c-15.9,0-31.9,0-47.8,0c0-0.4,0-0.8,0-1.2
		c22.4-1.7,44.9-3.4,67.3-5.1c0-1.1-0.1-2.2-0.1-3.2c-14,0-28,0-41.9,0c23.6-2.1,47.6-0.7,72.5-12.3c-15.4,0.7-28,1.5-40.5,1.7
		c-19.1,0.3-38.5,3.7-57.2-3.1c31.7-2.4,63.4-4.8,96.3-7.3c-16.6-3.7-31.4-11.2-48.5-7.4c-8,1.8-16.2,2.9-24.2,4.5
		c-6.9,1.4-13.9,2.7-20.6,4.8C458.5,1144.2,458,1147.5,457.1,1149.5z M1520.6,697c3.6-8.2,0.2-12.7-11.1-14.7
		c-2.1-2.9-3.6-7.1-6.4-8.4c-9.5-4.4-19.3-8.6-29.4-11.4c-10-2.8-20.6-5.6-30.9-0.1c-2.1-1-4.3-3-6.4-2.8c-9,0.9-17.9,2.5-26.9,3.7
		c-15.2,2-31.5,1-45.5,6.1c-59.4,21.8-118.6,44.6-177.1,68.7c-33.5,13.8-60.3,38.4-87.8,61.6c14.4-6.2,28.2-13.5,42.4-20.1
		c77.1-36,156.6-66.1,236.5-95.2c20.7-7.5,41.6-14.4,62.3-21.5c-20.6,9.7-41,19.8-61.8,28.9c-58,25.4-116.2,50.4-174.3,75.6
		c-3.5,1.5-6.8,3.5-10.2,5.3c20.6-1.9,40.7-4.1,59.8-9.7c61.5-18,122.7-37,183.8-56.2c24.3-7.6,48.2-16.6,72.3-24.9
		c-2.4,1.7-4.6,4-7.2,5.1c-39.4,15.8-78.8,31.8-118.5,47.1c-21,8.1-42.5,15-66.3,23.3c4.2,0,5.8,0.3,7.2,0
		c39.9-10.8,79.9-20.9,119.4-32.8c25.9-7.8,50.9-18.4,76.3-27.8c-1,1.1-1.8,2.5-3,3.1c-76.5,37.8-156.3,64.9-241.5,74.8
		c-9.9,1.2-19.8,2.2-29.7,3.3c18.9,2.3,37.9,4.4,56.2,1.9c56.6-7.9,112.2-21.2,167.1-37c18.9-5.4,37.8-10.6,56.7-15.9
		c-4.4,2.3-8.7,5.1-13.4,6.7c-33.8,11.4-67.7,22.5-100.1,33.1c-0.4,0,1.1,0.4,2.5,0.1c39.4-7.1,78.9-14.1,118.2-21.7
		c2.3-0.4,5.5-6,5-8.4c-1-4.5,3.7-13.5-7.2-12.4c1.4-1.9,4.3-4.3,3.9-5.7c-2.1-6.9-4.8-13.7-8-20.1
		C1526.9,697.2,1523,697.5,1520.6,697z M673.1,1091.5c1.7-0.7,3.5-1.3,5.2-2c4.1-2.9,9-5.1,12.1-8.8c11.7-13.6,22.8-27.6,34.8-42.1
		c-16.3-0.3-29.8,5.6-43.9,10.5c-12.8,4.5-25.7,9.1-40.1,7.7c-7.5-0.7-17,1.4-22.9,5.9c-25.2,19.1-49.5,39.5-74.7,59.9
		c11,4,21.7,8,32.5,11.9c0.4-1,0.9-2,1.3-3c-6.9-4-13.8-8-20.6-12c0.3-0.7,0.6-1.4,0.9-2c8.4,3.2,16.7,6.3,25.1,9.5
		c0.4-0.8,0.8-1.6,1.2-2.4c-6.2-4.4-12.5-8.8-18.7-13.2c0.5-0.8,1.1-1.7,1.6-2.5c7.5,4.5,15.1,8.9,22.6,13.4
		c0.3-0.5,0.6-0.9,0.9-1.4c-2.1-3-4.3-6-6.4-9c0.3-0.3,0.6-0.7,0.9-1c3.7,2.1,7.4,4.2,11.1,6.3c0.6-0.6,1.2-1.1,1.7-1.7
		c-1.9-2.7-3.6-5.5-5.7-8c-2.1-2.5-4.7-4.7-7.1-7c0.4-0.4,0.9-0.8,1.3-1.1c5.8,4,11.7,7.9,17.5,11.9c0.7-0.8,1.4-1.6,2-2.3
		c-4.6-6.3-9.2-12.7-13.8-19c0.5-0.5,1-0.9,1.5-1.4c6.5,6.1,13,12.2,19.5,18.3c0.6-0.4,1.1-0.9,1.7-1.3c-3.4-8.5-6.9-17-10.3-25.5
		c0.9-0.4,1.7-0.7,2.6-1.1c5.2,8,10.4,16,15.6,24.1c0.7-0.3,1.3-0.6,2-0.9c-1.4-9.9-2.8-19.8-4.2-29.7c0.4-0.1,0.7-0.2,1.1-0.4
		c4.9,11.1,9.8,22.3,14.7,33.4c1.1-0.3,2.2-0.7,3.3-1c-1.7-9.8-3.5-19.7-5.2-29.5c0.6-0.1,1.2-0.3,1.9-0.4
		c2.8,8.7,5.6,17.4,8.3,26.1c0.7-0.1,1.3-0.1,2-0.2c0-7.6,0-15.1,0-22.7c0.6-0.1,1.2-0.1,1.8-0.2c1.1,5.2,2.2,10.4,3.3,15.6
		c0.6,0.1,1.2,0.2,1.8,0.3c1-6.4,2.1-12.8,3.1-19.1c1.3,0.2,2.6,0.5,3.9,0.7c-1.5,8.7-3,17.4-4.7,26.8
		c12.6-13.5,14.6-31.4,20.9-47.2c0.9,0.3,1.7,0.7,2.6,1c-4.1,13.7-8.2,27.5-12.3,41.2C668.5,1095.3,670.8,1093.4,673.1,1091.5z
		 M420.7,847.4c2.1,3.1,3.7,6.8,6.4,9.2c16.6,15,35.9,25.3,56.4,34c8.1,3.5,15.7,4,23.9,1.5c22.2-6.8,44.4-13.5,66.6-20.3
		c2.6-0.8,5-2.3,9.3-4.3c-35.5,2.8-68.6,5.4-101.7,8c-0.1-0.8-0.1-1.7-0.2-2.5c0.7-0.3,1.4-0.8,2.1-0.9
		c52.9-3.2,105-11.6,155.9-26.4c45.9-13.3,92.4-19.5,140.2-15.4c5.8,0.5,11.7,0.1,17.5,0.1c-5-0.8-10.1-1-15.2-1.5
		c-16.8-1.5-33.5-4.4-50.3-4.4c-28.8,0-57.6,1.2-86.3,2.8c-19.2,1.1-39.2,1-57.4,6.3c-49.3,14.3-99.5,15.7-150,15.5
		c-5.9,0-11.7-0.9-17.6-1.3c3.8-0.7,7.6-1.5,11.4-1.9c39.5-4.3,79.2-8,118.6-12.8c35.9-4.4,71.7-10.1,107.6-14.8
		c15.1-2,30.4-2.6,45.7-3.9c-0.1-1.2-0.2-2.4-0.3-3.6c-32.8,2.8-65.6,6.2-98.5,8.1c-33,1.9-66.2,2.8-99.3,3.4
		c-32.5,0.6-65.1,0.1-97.6,0.1c78.8-6.1,158-6.8,236.7-20.1c-85.7-14.7-171.1-6.8-256.8-9.3c3.9,16.7,15.9,40,25.8,50.3
		C415.6,845.1,418.4,846,420.7,847.4z M874.1,597c-40.3-6.3-80.7-12.6-119.8-18.8c40.4,64.3,78.1,132.6,135.5,187.4
		c-22.8-51.2-45.5-102.2-68.3-153.3c35.3,49.6,63.7,103,90.9,157.3c-2-14.5-4.4-28.8-7.7-42.9c-10-43.3-20.4-86.6-30.6-129.9
		c1.5,2.7,3.5,5.3,4.5,8.2c12.4,34.3,25.2,68.6,36.8,103.2c5.6,16.7,8.8,34.1,13.2,51.2c0.7-0.1,1.5-0.2,2.2-0.3
		c-2.4-53.8-4.8-107.5-7.2-162C906.2,597,890.2,597,874.1,597z M1248.4,1194.8l0.2,0.3c2.6-15.7,5.2-31.5,7.8-47.2
		c-0.5-0.1-1-0.3-1.5-0.4c-5.1,16.2-10.2,32.4-15.3,48.6c-0.8-0.2-1.5-0.4-2.3-0.6c2.3-15.8,4.7-31.6,7-47.4c-0.5-0.1-1-0.3-1.5-0.4
		c-4.2,12.9-8.3,25.8-12.5,38.7c-0.8-0.2-1.7-0.5-2.5-0.7c2.4-15,4.8-29.9,7.2-44.9c-3.5,5.6-5.9,11.5-6.7,17.6
		c-4.3,34.2-19.7,62-46.7,83.3c-11.1,8.8-15.8,21.3-19.9,34.1c-6.3,19.8-12.5,39.7-18.5,59.6c-2.9,9.5-5.4,19.2-8,28.8
		c0.5,0.1,1,0.3,1.5,0.4c6.1-10.4,12.3-20.7,18.4-31.1c0.6,0.3,1.2,0.6,1.9,0.9c-7,15.4-14,30.9-20.9,46.3c0.4,0.1,0.9,0.3,1.3,0.4
		c9.1-11.6,18.2-23.2,27.4-34.8c0.6,0.5,1.2,0.9,1.9,1.4c-6.4,10.7-12.8,21.5-19.4,32.2c-14,22.5-14.2,23.1-12.4,33.6
		c5-8.1,9.6-15.8,14.6-23.2c4.9-7.1,10.3-13.8,15.4-20.7c-9.2,24.5-23.6,46.6-26.4,73.1c14.5-26.7,23.2-56.6,44-79.8
		c-0.5,3.1-1.8,5.9-3.2,8.6c-15.7,31-27.9,63.3-34.8,97.4c-2.7,13.4,0.9,25.8,7.5,37.9c2.4-7.2,4-14.5,4.9-21.8
		c7.2-57.2,22.7-111,62.2-155.4c18.3-20.6,29.8-45.3,38.7-71.2c5-14.4,7.8-29.2,4.6-46.9c-7.1,20.7-13.5,39.2-19.9,57.7
		c-0.5-0.2-1-0.4-1.6-0.6c12.5-47.8,25.1-95.7,37.6-143.5c-1-0.3-2-0.6-3-0.9c-5.6,15.8-10.9,31.7-16.8,47.5
		C1255.7,1179.5,1251.8,1187.1,1248.4,1194.8z M1025.6,1014.9c-1.2-0.3-2.5-0.6-3.7-0.9c8.5-54.8,9-109.8,6-167.4
		c-9,61.1-17.6,119.4-26.2,177.7c-1.2-0.1-2.5-0.3-3.7-0.4c10.4-62.8,12.6-125.9,8.7-189.2c-3.5,32.3-7,64.7-10.6,97
		c-1.3-0.1-2.5-0.1-3.8-0.2c0-31.9,0-63.7,0-95.6c-3.9,21.3-5.3,42.5-8.2,63.6c-10.5,75.4-21.4,150.6-32.3,225.9
		c-3.9,26.8-11.3,53.5-2.7,80.7c0.8,2.7,1.3,5.5,1.9,8.2c-0.9,0.3-1.8,0.6-2.7,0.8c-3-8.4-6.7-16.6-9-25.2
		c-5.5-20.6-0.8-40.9,3.9-60.8c16.8-71.8,25-144.4,23.8-218.1c-0.4-27.3-2.3-54.6-3.5-81.9c-0.8,0-1.6,0-2.4,0
		c-8.2,66.4-16.5,132.8-24.7,199.1c-0.8,0-1.7-0.1-2.5-0.1c7-63.2,6.3-126.4,0.7-189.5c-6.3,59.1-12.5,118.1-18.8,177
		c-0.8-0.1-1.7-0.2-2.5-0.2c0.9-19.3,2.1-38.6,2.6-57.9s0.9-38.7,0.4-58c-0.5-18.7,0.6-37.7-3.9-56.1c-2.6,17.7-3.9,35.4-5.4,53.1
		c-2.7,31.4-6.4,62.8-8.3,94.2c-3.4,57.1-6.5,114.2-15.8,170.8c-4.9,30-9.3,60.5-2.6,90.6c4.3,19.4,11.9,38.2,19.1,56.9
		c23.3,59.7,21.6,117.7-9.7,174.3c-1.9,3.4-3.4,7.2-3.8,11c-2.9,26.6-11.6,51.4-22.2,75.7c-1.7,3.8-3.1,7.8-4.7,11.7
		c17.3-17.4,28.2-38.4,36.3-60.9c8-22.1,15.4-44.5,23.1-66.8c-5.8,54.2-23.9,105.3-37.2,157.5c35.6-45.5,46.1-100.9,61.5-154.5
		c0.7,2.5,0.6,4.8,0.2,7.1c-3.3,18.2-6.8,36.4-9.9,54.7c-2.7,16.2-1.9,32,4.6,47.6c6,14.1,10.5,28.8,15.8,43.3
		c2.3,6.5,4.8,12.9,7.2,19.3c0.4-6.2-0.7-12-2-17.6c-4.8-20.5-9-41.5-2.3-61.9c9.7-29.4,21.4-58.1,32.2-87.1
		c0.8,7.3,0.2,14.3-1.6,21c-4.2,16-9.7,31.7-13.4,47.8c-5.5,24-2.9,47.2,9.1,69.8c6.2-23.6,11.2-46.3,18.1-68.3s15.8-43.3,23.9-64.9
		c-0.7,18-3.7,35.5-3.3,53c0.5,18.5,9.8,34.7,19.3,50.3c9,14.8,18.9,29,28.3,43.5c0.8-0.5,1.6-0.9,2.4-1.4
		c-12.1-23-23.1-46.4-26.8-72.5c-3.4-23.3-1.7-57,5.5-77.2c-3.1,27.9,2.7,54.1,14.5,79.2c11.7,24.8,25.2,48.4,44,68.8
		c-1.1-4.1-2.9-7.9-4.7-11.7c-7.9-16.7-16.5-33.2-23.6-50.2c-12.6-30.5-4.7-59.8,7.3-88.5c-2,24.2-7.9,48.3,3.1,72.1
		c11.6,25,31.3,51.1,44.4,56.6c-0.1-0.4-0.1-0.8-0.3-1.1c-2.7-3.9-5.4-7.8-8.3-11.5c-18-23.4-23.8-49-16.2-77.9
		c9.8-37.1,8.8-74.4-2.6-110.9c-10.5-33.8-22.9-67-34.1-100.6c-6.6-19.6-12.5-39.4-18.8-59.1c0.7-0.2,1.3-0.5,2-0.7
		c4.4,10.4,8.9,20.8,13.6,31.9c0.7-1.7,1.4-2.4,1.2-3c-1.1-4.2-2.4-8.3-3.7-12.4c-24.4-73.8-35.7-149.3-30.1-227.1
		c3.7-51.5,7.1-103.1,10.6-154.7c0.3-4.6,0-9.2,0-13.8c-0.2,0-0.4,0.1-0.6,0.1C1040.5,904.3,1033.1,959.6,1025.6,1014.9z
		 M754.5,1316.2c0.5-0.5,1-1,1.6-1.6c1.8,1.5,3.5,3.1,5.4,4.5c19.9,15.6,33.3,34.5,37.5,60.6c2.7,16.9,9.2,33.3,15.8,49.3
		c10.4,25.2,22.2,49.9,33.4,74.7c5.1-6.2,11.7-13.3,7.7-24.5c-9.9-27.3-19.7-54.7-29.6-82c-1.1-3-2.5-5.8-3.8-8.7
		c20.5,25.1,33.2,54,43.3,86.4c5.1-10.4,9.4-18.3,2.4-27.7c-3.2-4.3-4.9-9.8-7.2-14.8c-18.3-39.9-41.8-75.9-75.9-104.3
		c-3.9-3.3-7.2-7.3-10.6-11.1c-32.1-35.8-56.2-77-79-118.9c-9-16.5-17.8-33.1-26.7-49.6c-0.8,0.4-1.7,0.8-2.5,1.3
		c19.9,40.2,39.7,80.4,59.6,120.6c-0.7,0.4-1.5,0.8-2.2,1.2c-23-41.3-46-82.5-69-123.8c-0.7,0.4-1.4,0.7-2.2,1.1
		c10.2,23.6,20.5,47.1,30.7,70.7c-0.9,0.4-1.8,0.9-2.8,1.3c-14.4-24.9-28.9-49.7-43.3-74.6c-0.4,0.2-0.7,0.3-1.1,0.5
		c3.8,9.5,7.6,19.1,11.4,28.6c-0.6,0.2-1.3,0.5-1.9,0.7c-5.8-10.9-11.6-21.9-17.4-32.8c2.1,9.2,5.5,17.8,9.3,26.2
		c15.4,34.2,29.5,69,33.6,106.6c3.2,29.5,14.6,54.5,34.9,75.8c6,6.3,11.2,13.2,16.9,19.8c14,16.4,25.8,34.3,30.6,55.4
		c5.5,24.1,10.4,48.6,12.8,73.2c2.1,21.4,0.4,43.1,0.4,66.1c1.4,0.1,4.9,0.4,8.8,0.6c7.9-58.3-0.2-113.1-21.9-166.2
		c28.5,48.4,46,99.7,41.1,158.2c11.8-6.5,16.6-14.1,15.8-26.5c-2.2-32.3-10.1-62.9-23.3-92.3c-5.1-11.3-10.4-22.5-15.7-33.7
		c30.9,37.5,49.3,79.8,49.4,131.1c5.1-5.4,8-9,11.5-12c7.6-6.5,9.1-13.9,5.2-23.2c-7.1-16.6-14.1-33.3-20.3-50.3
		c-8.5-23.2-17.8-46.3-24-70.2c-4.6-17.6-10.5-33.6-23-47C764.8,1328.9,759.7,1322.4,754.5,1316.2z M689.2,790.4
		c-80.2-11.9-161.8-16.7-238-48.1c45.6,10.9,91.9,17.7,138.7,21.2c-57.3-20.5-114.5-41.1-171.8-61.6
		c68.5,18.5,136.4,38.2,203.9,59.4c49.4,15.5,99.9,20.3,151.4,19.2c-2.9-1.9-6-3.4-9.3-4.2c-51.2-12.6-102.2-26.3-153.7-37.2
		c-40.5-8.5-81.1-15.7-119.8-31c-23.9-9.5-43-20.5-52.9-31.2c3.4,1.7,5.5,2.6,7.4,3.7c38.5,21.7,79.7,35.3,123.4,42.1
		c34.2,5.3,68.2,12.1,102.3,18.2c5.3,1,10.7,1.7,16.1,2.5c-35.6-14.7-71.3-27.9-106.8-42c-44-17.4-87.7-35.4-131.4-53.4
		c-8-3.3-13.8-3.3-21.1,2.8c-21.5,18.1-37.2,39.5-43.7,67.1c-5.3,22.6-5,45,1.7,67c40.1-1.6,79.1-3.3,117.3-4.8
		c-35.7-8-72.2-16.1-108.7-24.3c0.2-0.8,0.4-1.7,0.5-2.5C492.4,769.8,589.5,790,689.2,790.4z M1232.1,1058.8c1.1-0.5,2.2-1,3.3-1.5
		c-4.3-14.8-8.6-29.5-12.9-44.3c1.1-0.3,2.3-0.7,3.4-1c6.6,22.1,13.3,44.3,19.9,66.4c0.7-0.3,1.4-0.6,2.1-0.8c0-16.4,0-32.9,0-49.3
		c0.8-0.1,1.5-0.2,2.3-0.3c2.1,19.1,4.1,38.2,6.2,57.3c0.9,0,1.8,0.1,2.7,0.1c3-14.7,6.1-29.5,9.1-44.2c1,0.1,1.9,0.3,2.9,0.4
		c-1.5,15.9-3,31.9-4.4,47.8c0.8,0.2,1.7,0.5,2.5,0.7c6-14.2,12-28.3,18-42.5c0.9,0.4,1.8,0.7,2.8,1.1c-4,15.9-8,31.7-12,47.6
		c1.2,0.4,2.3,0.9,3.5,1.3c8-13.3,15.9-26.7,23.9-40c0.7,0.3,1.5,0.6,2.2,0.9c-5.7,13.9-11.4,27.7-17.1,41.6
		c0.4,0.2,0.8,0.4,1.2,0.5c10.8-14.4,21.6-28.8,32.4-43.1c0.8,0.5,1.5,1,2.3,1.6c-9,13.8-17.9,27.7-26.9,41.5
		c0.5,0.6,1.1,1.2,1.6,1.8c10.2-7.9,20.4-15.9,30.6-23.8c0.6,0.7,1.2,1.4,1.8,2.1c-7.5,7.8-15,15.6-21.7,22.5
		c16.1-4.1,28.6-17.8,44.5-25.9c-7.1,7.5-14.2,15.1-21.3,22.6c0.6,0.8,1.2,1.5,1.8,2.3c19.5-12.7,39.1-25.5,58.6-38.2
		c0.6,0.8,1.1,1.6,1.7,2.5c-18.4,14-36.8,27.9-57.5,43.7c37-8.7,65.7-30.3,97.9-43.7c0.5,0.8,0.9,1.6,1.4,2.5
		c-25.6,15.4-51.1,30.9-75.4,45.6c27.9-1.8,54.1-14.9,81.2-24.9c0.3,0.7,0.6,1.4,0.9,2.1c-13.5,6.9-27.1,13.8-41.3,21
		c18.3-1.6,35.9-3.1,53.5-4.7c0.1,1.2,0.3,2.3,0.4,3.5c-23.1,2.6-46.2,5.3-69.3,7.9c0,0.7,0,1.3,0,2c26,1.6,52.1,3.2,78.1,4.8
		c-16.3,2.6-32.7,3.8-49,3.2c-16.5-0.6-32.9-3-49.3-4.6c7.4,3.4,15.2,4.4,22.8,6.1c7.7,1.7,15,4.9,22.7,6.3
		c11.6,2.1,23.3,3.8,35,4.5c29.3,1.9,36.1-22.4,27.2-42c-11.6-25.6-31.4-42-59.1-45.5c-26.9-3.4-54.2-3.7-81.3-5.4
		c-21.7-1.3-43.5-3.1-63-13.8c-16.8-9.3-32.9-20-49.4-29.9c-24.1-14.5-49.4-24.6-78.4-17.8c-25.7,6-46,31.6-21.1,59.6
		c7.1,8,16.5,14.8,26.1,19.6c23,11.5,47.5,18.5,71.9,19.2c-18-6.3-38.3-11.5-56.7-20.5c-18.7-9.1-32-25.3-42.5-43.6
		c27.1,34,65,48.1,105.6,58c-7.9-9.9-20.3-10.8-30.5-15.8c-10.3-4.9-20.9-9.4-30.2-15.9c-9.2-6.4-16.9-15-25.3-22.6
		c0.8-0.9,1.5-1.8,2.3-2.7c19.9,16.7,39.5,33.8,68.2,40.6c-14.8-10.4-28.1-18.2-39.5-28.2c-11-9.6-20-21.5-29.9-32.4
		c0.6-0.6,1.2-1.1,1.8-1.7c16.6,13.6,28.2,33.3,50.2,40.4c-5-7.1-11.1-13.1-16.5-19.7c-5.3-6.5-9.9-13.6-14.7-20.4
		c-0.2,0.4-0.4,0.7-0.6,1.1c8.7,8.3,17.4,16.7,26.1,25c0.9-0.7,1.8-1.4,2.6-2.1c-3.9-9.5-7.9-19.1-11.8-28.6
		c0.6-0.3,1.1-0.5,1.7-0.8c9.7,14.4,19.5,28.8,29.2,43.1c0.6-0.4,1.3-0.9,1.9-1.3c-3-10.2-6-20.4-9.3-31.9
		C1213.8,1024.5,1223,1041.6,1232.1,1058.8z M442.8,640.8c133.7,48.8,266.1,97.1,397,144.9c-1.5-0.9-4.7-3-8-4.9
		c-37.4-21.2-74.6-42.5-112.2-63.3c-20.6-11.4-41.2-23.3-62.8-32.6c-44.5-19-90.8-34.3-134.3-55.2c-24.5-11.8-44.2-8-65.6,3.1
		C452.4,635.2,448,637.8,442.8,640.8z M1235,798c78.1,22.3,157.2,38,238.5,42.2c0,0.8,0,1.7,0,2.5c-21.4,0-42.8,0-64.3,0
		c-0.1,0.9-0.1,1.7-0.2,2.6c4.5,2,8.9,4,13.4,6c-0.1,0.2-0.2,0.4-0.2,0.7c-27.9-6.5-55.8-13-83.6-19.4c-0.3,1-0.5,1.9-0.8,2.9
		c25.1,10.1,50.2,20.3,75.5,30c4.1,1.6,9.4,1.3,13.9,0.3c21.4-4.6,41.3-13,59.6-25c18-11.8,32.8-26.7,42-46.6
		c-16.4,1.5-32.4,3.9-48.4,4.1c-16.1,0.2-32.2-1.8-48.3-2.7c-8.5-0.5-16.9-0.9-25.4-1.3c0,0.9-0.1,1.8-0.1,2.7
		c25.5,7.3,51,14.6,77.4,22.2c-8.7-0.5-16.8,0.2-24.4-1.6c-24.5-5.5-48.9-11.8-73.2-18.1c-19-4.9-38.1-7.2-59.7-3
		c13,2.2,23.9,3.9,34.7,5.8c10.3,1.8,20.6,3.9,30.9,5.9c-0.1,0.9-0.2,1.8-0.4,2.7C1339.7,806.6,1287.6,802.3,1235,798z
		 M1284.3,615.1c-63.6,52.2-126.2,103.6-188.7,154.9c26.6-13.6,52-29.2,78.8-41.7c27-12.6,55.3-22.8,83.4-32.7
		c27.7-9.8,55.9-18,84.6-27.1C1291.3,655,1287.6,651.7,1284.3,615.1z M842.4,774.7c0.7-0.8,1.4-1.6,2.2-2.4
		c-15.4-12.2-30.2-25.4-46.4-36.4c-26.4-17.9-53.7-34.4-80.6-51.5c-35.3-22.4-70.4-45-105.9-67.1c-5.4-3.4-12.1-6.4-18.1-6.5
		c-16.9-0.1-33.8,1.4-50.8,2.4c-11.5,0.7-23.1,1.6-36.5,2.6c2.7,2.3,3.4,3.4,4.4,3.7c35.3,12.3,70.7,24.2,105.9,36.9
		c26.3,9.4,53.4,17.4,78,30.1c35,18,68.1,39.7,101.9,59.9C811.8,755.6,827,765.2,842.4,774.7z M1052.6,771.8
		c0.8,0.8,1.6,1.6,2.4,2.4c60.6-74.5,129.9-140,207.1-198.9c-13.6-5.5-27.1-9.1-40.5-12.9c-9.1-2.6-15.3,0-21.1,7.7
		c-28.5,37.7-58,74.6-86.1,112.7C1092.9,711.8,1073.1,742.1,1052.6,771.8z M883.3,783.4c0.3,0,0.6-0.1,0.9-0.1
		c-2.9-3.5-5.5-7.3-8.6-10.6c-22.5-23.8-45.1-47.5-67.8-71.1c-38.3-39.8-76.7-79.5-115.2-119.1c-2.6-2.7-6.9-6.8-9.3-6.2
		c-12.6,3.3-25.3,6.8-36,15.5C726.6,656.2,805,719.8,883.3,783.4z M1035.2,587.8c-11.1,58.7-23.4,116.7-29.7,177.4
		c27.8-62.6,54.9-123.5,82.4-185.6C1069.8,582.4,1052.8,585,1035.2,587.8z M1028.6,588.6c-18.3,1.9-36.5,3.8-55.1,5.7
		c3.7,57.5,7.4,113.6,10.9,168.2C998.8,705.8,1013.6,647.8,1028.6,588.6z M1267,577.3c-57.4,53.3-116.7,102.9-163.3,165.2
		c4.7-3,8.5-6.8,12.9-10.1c52.3-38.6,104.6-77.1,157.1-115.5c12.1-8.8,13.4-15.1,4.5-27.2C1275.3,585.9,1271.8,582.7,1267,577.3z
		 M1028.8,758.5c35.8-66.2,76.5-128.9,120.7-189.9c-16.5,2.2-32.1,6.1-47.9,8.5c-7.9,1.1-11.3,4.5-13.7,11.6
		c-18.3,52.7-37,105.3-55.5,157.9C1030.9,750.5,1029.9,754.6,1028.8,758.5z M1217.9,441.5c57.3-12.6,103.6,2.5,137.8,54.4
		c5.5-26.8,1.9-49.4-13.7-69.5c-10.2-13.2-23.7-20.2-40.8-19.7C1269,407.5,1242.7,422.4,1217.9,441.5z M957.6,765.7
		c0.7,0,1.4-0.1,2.1-0.1c3.3-56.8,6.6-113.6,10-170.9c-15,0.9-28.2,1.8-41.6,2.6C938,654.1,947.8,709.9,957.6,765.7z M1199.6,563.1
		c-0.4-0.7-0.8-1.4-1.3-2.1c-10.1,1.2-20.2,2.4-30.4,3.5c-6.8,0.7-11.3,4.2-14.9,10c-22.9,38.1-46.1,75.9-68.8,114.1
		c-7.9,13.3-14.4,27.4-21.5,41.1C1104.1,670.5,1153.7,618.3,1199.6,563.1z M578.5,498.5c-18-28.6-54.2-39.1-84.7-26.1
		c-23.1,9.9-42.3,39.1-33.8,66.1C490.2,498.3,529.6,484.8,578.5,498.5z M1122.7,1443.9c-1.2,18.6-2.2,35-3.5,51.5
		c-2.8,35.1,16.1,70.9,49,83.9c23.5,9.3,49,13.6,73.7,19.9c2.1,0.5,4.8-1.2,7.2-1.9c-0.1-0.9-0.2-1.8-0.3-2.7
		c-14-4.7-28-9.6-42.1-14.1c-39.5-12.8-63.3-39.3-71.3-80.2C1131.9,1482,1127.3,1463.8,1122.7,1443.9z M1402.5,866.5
		c-17.4-6-34.7-12.4-52.3-18.1c-34.4-11.1-68.7-22.5-103.4-32.5c-18.4-5.3-37.5-9-56.5-11.5c-22.8-3-53.7,2.3-68.1,10.1
		c50.3-12.3,97.4-1.9,143.9,17.7c28.5,12.1,58.3,21.3,87.9,30.7C1369.5,867.8,1385.7,871.6,1402.5,866.5z M1213.1,384.4
		c-0.1-0.8-0.2-1.7-0.3-2.5c-32.4-7.5-64.7-15.1-99.3-23.2c2,9.2,3,16.5,5.3,23.4c5.6,17.2,16,24.5,33.7,22.7
		C1174.1,402.6,1193.5,393.2,1213.1,384.4z M715.4,466.1c-30.5-4.6-56.8-19.9-85.8-31.9c0,12.1-0.9,22.3,0.3,32.3
		c1.2,10.5,7.2,18.8,18.3,20.6C673.9,491.1,695.1,480.3,715.4,466.1z M793.6,667.5c0.6-0.6,1.2-1.1,1.7-1.7
		c-16.7-28.8-33.4-57.7-50.2-86.4c-1.3-2.2-3.7-4.9-5.9-5.3c-14.9-2.2-29.9-2-47.3-0.7C727.5,606.3,760.6,636.9,793.6,667.5z
		 M1537.4,628.3c4.5-29.7-15.9-54.6-43.8-55.3c-21.5-0.5-39.7,8.8-57,20.3c-1.6,1-2.6,2.9-4.5,5.2
		C1472.7,591.2,1507.6,600,1537.4,628.3z M1356.2,784.6c0.1,1,0.3,2.1,0.4,3.1c58.1-4.1,116.3-8.3,173.7-12.3
		c-12.2,2.4-25.4,4.9-38.5,7.5c0,0.8,0,1.5,0,2.3c13.1,0.4,26.2,0.9,39.3,1.3c2.8-11.7,5.5-23.4,8.2-35.2c0.1-0.6-0.5-1.4-1.2-2.8
		C1478.6,765.3,1419,782.8,1356.2,784.6z M720.7,1102.6c7.5,1.1,13.5,2.4,19.5,2.7c11.5,0.6,21.8-3.2,26.4-14.2
		c10-24.2,4-51.6-30.7-51.9c-3.2,0-7.6,2.2-9.4,4.8c-7.3,10.6-13.8,21.7-20.7,32.7c0.5,0.5,1,1,1.5,1.6c11.4-9,22.9-18,34.3-26.9
		c0.4,0.5,0.8,0.9,1.2,1.4c-3.5,4-6.9,8-10.4,12c0.5,0.4,0.9,0.9,1.4,1.3c3.3-1.6,6.7-3.2,10-4.8c-6.8,12.6-20.3,17.3-32.2,28.4
		c12.8-5.4,23.1-9.7,33.4-14.1c0.1,0.4,0.3,0.8,0.4,1.2c-2.6,2.2-5.2,4.4-9.3,7.9c10.5-2.8,18.8-5,27.1-7.2c0.5,1.3,1,2.5,1.5,3.8
		C750.5,1088.2,736.3,1095.1,720.7,1102.6z M1005,476.6c1.8-7.2,4-13,4.6-18.9c1.5-14.2-7-25.7-20.4-28.9
		c-22.9-5.6-55.6,12.3-65.9,34.5C952.4,452.2,980.5,447.6,1005,476.6z M609.3,607.7c42,23.9,83.4,47.6,124.9,71.2
		c0.3-0.3,0.6-0.7,0.9-1c-31.7-27.8-63.4-55.6-94.7-83C629.5,599.3,619.7,603.3,609.3,607.7z M819.5,526.2c2.1-12.9,4.6-23.9,5.7-35
		c1-10.7-4.9-16.3-15.7-15.6c-21.1,1.5-37.9,12.7-54.5,24.7C778.3,502.7,798.3,512,819.5,526.2z M691.7,849.4
		c-0.3-0.9-0.6-1.8-0.8-2.8c-17,3.2-34.4,4.9-50.8,9.8c-43.2,13-86,27.4-128.9,41.2c8.8,2.2,19.1,5.8,27.5,3.1
		C589.9,884.5,640.7,866.7,691.7,849.4z M1120.2,828.2c0.1,0.8,0.1,1.6,0.2,2.4c12.2,0,24.4,0.3,36.6-0.1
		c23.8-0.8,46.9,1.9,69.8,9.5c24.2,8.1,49,14.4,73.7,20.8c9.5,2.5,19.3,3.6,29.1,5c9.7,1.3,19.4,2.2,29.2,3.2
		c-28.3-7.5-56.5-14.7-83.7-24.5c-40.9-14.6-82.2-24.4-125.9-20.4C1139.4,825,1129.8,826.8,1120.2,828.2z M739.9,1544.5
		c-6.3-13.1-15.2-22.1-26.9-28.3c-10.5-5.6-17.1-3.6-23.9,6.5c-4.9,7.3-3.7,17.8,3.4,24c6.4,5.6,13.2,10.8,18.8,15.2
		c5.1-3,9.4-5.4,13.7-8C729.6,1551.1,734.2,1548.1,739.9,1544.5z M875.5,1692.2c9.3,9.2,38.7,13.3,46.5,5.3c7.5-7.8,16.2-7.4,25-9
		c3.6-0.6,7.1-1.6,12.9-2.9c-10.9-7.6-18.6-3.3-24.7-0.9c-5.7-3.8-10.3-7.9-15.7-10.2c-5.4-2.3-11.6-2.9-17.5-4.2
		c0-1.1,0-2.3,0.1-3.4c4.4-1.1,8.8-2.2,13.1-3.4c-12.7-5.2-24.5-2.9-36,3.1c6.3-0.6,12.5-1.2,20.9-2
		C890.7,1675.1,883.1,1683.7,875.5,1692.2z M691.1,862.6c-0.7-1.3-1.3-2.6-2-3.8c-44.1,14.8-88.2,29.5-132.3,44.3
		c0.1,0.8,0.2,1.6,0.3,2.4c13.6-1.1,28.1,0.6,40.5-3.9C629.2,890,659.9,875.8,691.1,862.6z M542.6,549.5c0.4,2,0.7,3.9,1.1,5.9
		c15.1,0.6,30.2,2.2,45.2,1.4c9.8-0.5,15.2-7.8,13.6-14.2c-1.6-6.6-9.6-11.8-18-9.1C570.2,537.9,556.5,544,542.6,549.5z
		 M877.7,1504.8c-26.8,22.3-42.2,51.7-58.2,80.5C845.4,1563.4,865.1,1537.1,877.7,1504.8z M1109.9,478.8c0-1,0.1-1.9,0.1-2.8
		c-4.7-1.6-9.4-3.5-14.2-4.8c-11.5-3.2-22.8-2.5-32,5.7c-2.6,2.3-2.7,7.5-3.9,11.4c3.8,1.2,8,4.1,11.3,3.2
		C1084.3,487.9,1097.1,483.1,1109.9,478.8z M699.8,1691.2c11.6,13.3,33.3,10.3,51.1-5.6C732.2,1672.9,715.9,1678,699.8,1691.2z
		 M1120.3,1366.9c1,0.2,2,0.4,3,0.6c13.1-36.5,26.2-73.1,39.6-110.3c-11.9,8-16.1,19.9-19.8,32.4c-5.3,17.6-11.3,35-16.6,52.7
		C1124,1350.4,1122.3,1358.7,1120.3,1366.9z M623.7,1018.4c-9.9-12-21.5-15.5-34-11.2c-13.1,4.5-19.7,13.7-20.2,29.8
		C584.1,1020,602.3,1015.4,623.7,1018.4z M748.5,1017.2c-8.7-9.9-18.7-16.8-32.1-12.3c-11.6,3.9-19.9,11.6-23.4,26.1
		C710.2,1015.4,728.4,1012.4,748.5,1017.2z M817.2,1561c-9.2,5.1-18.4,10.1-27.5,15.5c-6.1,3.6-12,4.1-19,2.2
		c-12.8-3.4-25.9-5.5-38.8-8.1c7.8,5.1,17.2,8,23.7,14c6.6,6.1,11.5,6.4,18.5,2.5c3.1-1.7,6.8-2.1,10-3.5
		C796.5,1577.9,809.4,1573.1,817.2,1561z M1088.8,1640c-1.2,0.6-2.4,1.1-3.6,1.7c-1,9.7-0.8,19.3,4.8,28.1c3.4,5.3,8.8,4.4,13.6,1.9
		c5.7-2.9,5-8,2.1-11.9C1100.5,1652.8,1094.5,1646.6,1088.8,1640z M894.6,965c6-37.5,6.8-74.5,0-111.4
		C894.6,890.7,894.6,927.9,894.6,965z M694.5,1144.5c12.2-17.5,31.4-20.7,48.8-27.2C708.4,1114,691.1,1123.4,694.5,1144.5z
		 M974.1,372.6c-0.1-0.9-0.2-1.8-0.3-2.7c-5.5-1.3-10.9-3.1-16.4-3.9c-7.2-1.1-13.5,1.4-16.5,8.3c-1.2,2.7-1.1,7.1,0.3,9.5
		c1,1.6,6,2.2,8.3,1.2C957.8,381.4,965.9,376.8,974.1,372.6z M1250.8,1477.9c0-0.8-0.1-1.6-0.1-2.4c-12.6-2-22.4,6.5-32.8,11.6
		c-17.7,8.7-23.8,15.1-25.3,20.1C1210.6,1498.2,1230.7,1488.1,1250.8,1477.9z M828.4,375.5c-6.6-1.4-13.1-3.2-19.8-3.9
		c-4.9-0.5-10,0.7-9.4,7.5c0.5,5.6,3.4,9.9,9.7,9.8C816.6,388.6,823.3,385.9,828.4,375.5z M1057,333.7c-1.4-0.4-2.9-0.8-4.3-1.1
		c-3.7,3.8-8,7.2-10.8,11.5c-1.8,2.8-3.1,9.1-1.6,10.3c2.8,2.3,7.9,3.5,11.6,2.8c3.1-0.6,7.5-4.4,7.8-7.1
		C1060.1,344.8,1058,339.2,1057,333.7z M1222.7,956.5c-16.4-18.9-39.2-19.5-50.7-1.1C1189.7,947.7,1206.2,950.3,1222.7,956.5z
		 M1054.4,1653.9c-0.7,1.6-1.4,3.2-2.1,4.8c6,4.3,11.8,9,18.2,12.5c2.1,1.1,6.1-1.1,9.2-1.8c-0.9-3.4-1-9-2.9-9.8
		C1069.6,1656.7,1061.9,1655.6,1054.4,1653.9z M701.4,796.4c0,0.8,0,1.7,0,2.5c12.1,1.1,24.2,2.3,36.2,3.4c12.3,1.2,24.7,2.4,37,3.6
		c0.1-0.9,0.2-1.8,0.2-2.7C750.5,800.2,726.3,794.6,701.4,796.4z M523.7,1131.3c15.8,2.6,29.2,4.9,42.6,7.2c0.2-1.1,0.4-2.2,0.6-3.3
		C553.5,1132.7,542.3,1117.8,523.7,1131.3z M1212.4,1605.1c-21.9,4.7-42.1,9.9-58.9,27.6C1174.1,1623.1,1192.6,1614.4,1212.4,1605.1
		z M699.2,1575.3c-15.4,8.5-31.1,17.1-45.7,25.1C668.3,1601.5,698.4,1585.2,699.2,1575.3z M1395.8,982.2c14.7,1.6,23,9.6,27.6,22.2
		C1426.6,983.7,1414.8,974.1,1395.8,982.2z M458.3,1095.4c-6.1-4.1-13.1-5.2-20.7-1.1c-5.7,3.1-8.9,7.5-8.4,12.7
		C439,1103.1,448.3,1099.4,458.3,1095.4z M1444.4,1032.5c9.5,4.9,20,10.3,30,15.3C1473.7,1032.2,1461,1025.9,1444.4,1032.5z
		 M1205.9,1598.9c-22.2-1.6-51.6,4.7-59.5,13C1166.6,1607.5,1188.9,1602.6,1205.9,1598.9z M510.9,1088c8.5-4,16.1-7.7,25.2-12
		C515.3,1072.8,508.7,1076,510.9,1088z M721.4,1612.6c-11.6,6.9-21,15.9-25.8,28.5c0.7,0.5,1.4,1.1,2,1.6
		C705.6,1632.6,713.5,1622.6,721.4,1612.6z M662.5,1022.4c0.2,1.2,0.4,2.4,0.6,3.7c3.6-0.7,8.4-0.3,10.6-2.5
		c3.7-3.7,4.4-8.9-2.1-13.3C668.4,1014.6,665.4,1018.5,662.5,1022.4z M1337,952.8c-0.3-1.2-0.6-2.5-0.9-3.7
		c-5.5,0.4-11.1,0.5-16.5,1.4c-1.3,0.2-2.9,3.6-2.7,5.3c0.2,1.2,3.6,3.1,4.9,2.7C1327,957,1332,954.7,1337,952.8z M878.5,1650.8
		c0.3,1,0.6,2,0.9,3c8-2.3,16-4.7,24-7c-0.3-0.9-0.5-1.8-0.8-2.8C893.6,1642.8,885,1643.4,878.5,1650.8z"/>
	<path d="M1244.1,1526c2.1-9.2,3.8-16.9,5.5-24.6c1.7,0.1,3.3,0.2,5,0.3c0.8,7.4,1.6,14.7,2.5,22.6
		C1252,1525,1248.8,1525.4,1244.1,1526z"/>
	<path d="M673.1,1091.5c9.2-15.4,18.4-30.8,27.6-46.3c-3.4,16.9-10.8,31.7-22.3,44.3C676.5,1090.2,674.8,1090.8,673.1,1091.5z"/>
	<path d="M932.1,1057.9c-1.2,17.2-2.8,34.5-3.6,51.7c-1.7,34.3-4,68.8,4,102.5c5.7,24,14.3,47.4,22.2,70.9
		c13,38.8,20.2,78.5,17.8,119.6c-0.6,10.2-2,20.3-4.6,30.5c0-5-0.3-10,0-15c3.2-48.5-7.2-94.5-24.4-139.6
		c-9.2-24.1-18.7-48.9-22.5-74.2c-3.7-24.9-1.6-51,0.2-76.4c1.6-23.5,6-46.8,9.2-70.1C931,1057.7,931.6,1057.8,932.1,1057.9z"/>
	<path d="M908.8,1081.3c0,6.2-0.1,12.4,0,18.6c0.6,44.1,0.3,88.3,2.2,132.3c0.7,16.6,5.4,33.4,10.8,49.3
		c13.7,40.5,21.2,81.5,14.8,124.2c-0.2,1.4-0.5,2.9-1.4,4.3c0.1-28.9-1.9-57.5-10.1-85.3c-2.8-9.4-5.2-19.1-9.1-28
		c-15.4-35.6-18.4-73.1-16.5-111.2c1.6-33,4.4-66,6.6-99c0.1-1.8,0.6-3.5,0.9-5.3C907.7,1081.2,908.2,1081.2,908.8,1081.3z"/>
	<path d="M1019.3,1109.1c5.6,22.1,9.5,44.7,17.1,66.1c12.9,35.9,19.5,72.9,25.5,110.2c4.4,27.2,8.9,54.4,13.2,81.6
		c0.9,5.8,1.1,11.6,0.1,17.6c-9-41.4-17.7-82.9-27.1-124.3c-7.8-34.5-17.1-68.7-24.5-103.4c-3.3-15.7-3.4-32-5-48
		C1019,1109,1019.2,1109.1,1019.3,1109.1z"/>
	<path d="M997.6,1104.8c-0.2,42.9,7.7,84.7,17.4,126.1c7.2,31.1,14.7,62.1,21.7,93.2c7.9,35,8.4,70.4,5.9,105.9c-0.9,0-1.7,0-2.6,0
		c0-15.3,0.7-30.6-0.1-45.9c-1.8-33.2-9.6-65.4-19-97.2c-16.3-55.5-27.7-111.7-26.6-169.8c0.1-4.2,0.4-8.3,0.6-12.5
		C995.8,1104.7,996.7,1104.7,997.6,1104.8z"/>
	<path d="M1006.7,1442.8c0-17.9,0.3-33.4-0.1-49c-0.8-39.4-12.5-76.7-23.5-114.1c-12.7-43.1-19-86.8-9.8-133.2
		c1.7,22,1.6,42.8,5.3,62.8c6.6,35.9,15.2,71.5,23.4,107.1C1011.5,1357.5,1014,1398.8,1006.7,1442.8z"/>
	<path d="M889.1,1164.8c0,27.1,0,54.2,0,81.3C882.3,1219,885.6,1191.7,889.1,1164.8z"/>
	<path d="M742.6,1360.1c-9.1-12.8-18.4-26.2-28.1-39.2c-16.7-22.7-28.4-47.9-37.5-74.3c-0.4-1.3-0.1-2.9-0.1-6.6
		c4,7.9,7.1,13.8,9.8,19.8c11.5,25.2,25.9,48.4,44.2,69.2C741.5,1340.9,742.6,1345.5,742.6,1360.1z"/>
	<path d="M772.8,1373.2c-19.2-29.4-45.3-52.1-55-85.8c1.2,1.8,2.6,3.6,3.7,5.5c9.2,16.2,20.5,30.6,35.2,42.4
		C767.9,1344.5,774.5,1356.1,772.8,1373.2z"/>
	<path d="M1248.4,1194.8c-0.7,4.9-0.2,10.3-2.3,14.4c-5.1,9.7-10.8,19.2-17.4,27.9c-12.2,16.1-19.1,33.9-22.1,53.8
		c-1.9,12.7-5.7,25.1-10.3,37.2c2.6-19.1,5.5-38.1,7.6-57.2c1.5-13.5,7.5-24.4,15.8-34.8c10.4-13.1,24-24.1,29-41.1L1248.4,1194.8z"
		/>
	<path d="M1177,1306c0.4-60.4,15.9-65.2,51.1-92.9c-11.4,13.7-25.1,26.1-33.5,41.4C1186.2,1269.9,1182.9,1288.1,1177,1306z"/>
	<path d="M1239.5,1251.7c-5.5,15.7-11,31.4-16.5,47.2c-0.9-0.3-1.9-0.7-2.8-1c5.4-15.9,10.8-31.9,16.3-47.8
		C1237.5,1250.6,1238.5,1251.1,1239.5,1251.7z"/>
	<path d="M918.9,1689.2c-8.8,8.1-18,8.3-30,0C899.5,1689.2,908.8,1689.2,918.9,1689.2z"/>
</g>
<path id="SVGID_x5F_1_x5F_" class="st0" d="M1828.1,1023.7c0,491.9-398.7,890.6-890.6,890.6S46.9,1515.6,46.9,1023.7
	s398.7-890.6,890.6-890.6S1828.1,531.8,1828.1,1023.7z"/>
<text transform="matrix(0.4847 -0.8747 0.8747 0.4847 167.3158 658.0844)" class="st1 st2"> </text>
<g class="st3">
	<path d="M181.1,633c-2,2.6-4.2,4-8.4,2.7c-10.1-2.9-35.3-16-63.5-34.1c-26.6-17.1-55.3-38.6-75.6-59.4c-2.4-2.4-1.8-5.4-0.7-7.6
		c5.3-10.5,13.2-23.2,21.2-35.6c7.7-12,15.2-22.8,21.2-30.9c2.5-3.1,4.5-2.7,6.5-1.4c6.5,4.2,19,15.5,23.6,22.6c1,1.5,0.6,2.9,0,3.9
		c-0.8,1.2-2,2.3-3.3,3.4c-4.5,3.5-11.1,9.5-18,20.2c-4.6,7.1-6,11.1-5.2,15c1.2,5.5,15.3,16.5,29.7,25.7c6.9,4.4,10.4,3.3,13.9-2.2
		c5.4-8.5,8.4-21.3,17.5-35.5c2.7-4.1,5-6,7.7-4.2c7.5,4.8,18.6,13.9,24,20.2c1.4,1.7,1.2,3.3,0.2,4.9c-2.3,3.5-9.7,12.1-17.2,23.7
		c-6.1,9.5-7,16.1,1.5,21.5c12.2,7.8,35.9,13.9,39,15.9c2.6,1.6,2.6,4.2,0.7,8c-0.8,1.7-3.9,6.9-7.1,11.9
		C185.8,626.5,182.4,631.3,181.1,633z"/>
</g>
<g class="st3">
	<path d="M177.4,510.2c-35.2-29.8-46.5-64.5-22.4-93.1c24.5-28.9,57.3-21.7,93.6,9c39.5,33.4,40.5,65.5,19.3,90.6
		C247.1,541.3,216.9,543.6,177.4,510.2z M225.2,449.8c-23.2-19.7-40.5-23.5-49.1-13.4c-9.4,11.1-2.2,27.3,20.8,46.8
		c22.5,19.1,37.3,23.6,47.5,11.7C254.7,482.7,247.4,468.5,225.2,449.8z"/>
</g>
<g class="st3">
	<path d="M341.2,435.1c-2.1,2.6-5.1,5.5-8.5,8.7c-3.4,3.2-7,6.6-10.4,9.5c-2.7,1.9-5.7,2.2-8.9-0.3c-10.2-6.7-28.6-23.5-48.5-44.6
		c-27.8-29.4-38.5-43.8-42.4-50.7c-1.7-3.2-1.8-5.7-0.8-7.3c1.2-2.1,5.2-6.5,9.1-10.2c2.2-2.1,4.3-4,6.1-5.1
		c2.2-1.4,3.8-0.7,5.9,1.2c2.1,2.2,3.6,2.1,4.6,1.1c0.7-0.6,1-2,1.3-3.8c1.1-8.1,2.7-14.2,6.6-17.9c2.9-2.7,7.2-1.6,16.5,8.2
		c4.8,5.1,8.8,10,10.5,13.2c1.9,3.7,1.3,5.5-0.2,6.9c-2.4,2.2-7.2,4.6-10.8,8c-3.9,3.7-3.9,10.5,12.1,27.5
		c23.6,25,54.8,44.4,58.1,47.8C343.6,429.8,343.8,432.1,341.2,435.1z"/>
</g>
<g class="st3">
	<path d="M340.6,377.8c-19.5-25.7-7.4-52.8,16.8-77c4.7-4.7,5.3-8.1,2.6-11.7c-6.8-9-15.1-10.6-26.1-2.3c-9.7,7.3-15.6,18.6-18,32.1
		c-0.2,1.6-0.7,2.9-1.7,3.6s-2,0.9-3.6,0.7c-4.6-0.6-10.7-3.7-14.8-9.1c-9.2-12.1-1.4-33.6,22.5-51.7c29.3-22.2,50.9-14.5,71.4,12.6
		c11.4,15.1,23.1,32.1,32.3,44.2c7.6,10.1,18.4,21.3,20.3,23.7c2.4,3.2,2.4,5.8-0.4,8.8c-4.4,5.4-23.7,20.6-33.8,28.2
		C380.3,401.2,358.1,401,340.6,377.8z M384,320.4c-3.8-5-6-6-9.4-3.5c-14.6,11-20,26.3-10.7,38.6c7.8,10.3,17.4,8.6,31-1.7
		c7.6-5.8,7-9.7,3.1-14.9L384,320.4z"/>
</g>
<g class="st3">
	<path d="M435.8,185.4c8.6-4.8,14.1-5.5,17.7-7.6c4.3-2.4,3.6-9.3,4.2-15.8c-0.1-6.4,1.2-10.3,3.6-11.7c4.7-2.6,21.6,2.1,24.5,7.1
		c0.7,1.2,0.8,2.8-0.2,4.4c-3.1,5-6,10.4-3.3,15c3,5.3,14.1,4.1,24,21.6c13.2,23.4,7.8,47.2-23.9,65.1c-19.2,10.8-19.2,24-14.7,32
		c3,5.3,6.8,5.8,11.9,3c10.4-5.9,18.5-23.4,35.4-32.9c8.4-4.7,16.2-6.5,22.1-6c3.7,0.3,6.2,2.4,7.8,5.3c4.4,7.7,7.8,27.1,2.1,30.3
		c-1.2,0.7-3,0.9-4.5,0.6c-6-1.2-12.3-1.4-20.5,3.2c-12.2,6.9-16.4,20.5-33.1,30c-17.3,9.8-31.8,6.4-41-9.9
		c-8.2-14.5-6.3-28.7-2.9-38.9c0.7-2,0.7-3.6,0-4.8c-0.6-1-1.6-1.8-3.2-2.2c-8.8-2.3-20.6-8-29-22.8
		C399.2,226.2,408,201,435.8,185.4z M468.9,240.3c10.2-5.8,14.5-17.1,8.7-27.5c-5.4-9.6-16.3-13.1-27.5-6.8
		c-11.6,6.6-14.1,17.9-8.7,27.5C447.1,243.5,458.1,246.4,468.9,240.3z"/>
</g>
<g class="st3">
	<path d="M618.8,264c-36.9,14.8-61.3-8.2-76.5-46.2c-20.5-51-3.3-83.7,28.4-96.4c20.4-8.2,41.4-3.8,50.8,19.7
		c15,37.4-19.5,53.7-34.1,72.7c-4.3,4.5-5.5,7.7-4,11.4c3.6,8.9,12.4,13.9,25.2,8.8c15.9-6.4,24.8-18.5,27.3-35.7
		c0.4-1.4,1.1-2.2,2-2.6c2.8-1.1,7.2,2.9,11,12.2C658.2,231.5,643.1,254.2,618.8,264z M577.5,147.9c-16.1,6.5-19.3,26.7-11.5,46.2
		c1,2.4,2.6,4,4.6,3.2c1.3-0.5,2.3-1.2,3.3-2.4c8.3-11.4,25.9-26.5,20.5-40C591.6,147.8,585.3,144.8,577.5,147.9z"/>
</g>
<g class="st3">
	<path d="M667.1,210.2c2.3-4.6,6-10.1,10-14.9c1.8-2,3.4-3.4,5.4-4c7.8-2.3,19.5,4,23.6,17.9c6.8,22.7-8.9,41.5-18.3,44.3
		c-1.8,0.5-3.8-0.3-4.4-2.6c-0.9-3.1,0-8.1-2-15c-1.8-6.1-5.2-11.9-11.1-16c-2.3-1.3-3.7-2.6-4.2-4.1
		C665.6,214.3,665.9,212.8,667.1,210.2z"/>
</g>
<text transform="matrix(0.9718 -0.2359 0.2359 0.9718 716.9166 228.2146)" class="st4 st5"> </text>
<g class="st3">
	<path d="M781.9,213.1c-3.3,0.3-5.8-0.5-7.6-4.5c-4.5-9.5-11.3-37.1-16.4-70.2c-4.8-31.2-7.6-67-5.4-96c0.2-3.3,2.8-4.9,5.3-5.5
		c11.4-2.9,26.2-5.4,40.7-7.6c14.1-2.2,27.1-3.7,37.2-4.5c4-0.1,5,1.6,5.3,3.9c1.2,7.6,0.9,24.5-1.4,32.6c-0.4,1.7-1.8,2.4-2.9,2.6
		c-1.4,0.2-3.1,0-4.8-0.2c-5.6-1-14.5-2-27-0.1c-8.3,1.3-12.3,2.8-14.7,6c-3.3,4.5-2.3,22.4,0.3,39.2c1.2,8.1,4.4,10,10.8,9
		c9.9-1.5,21.5-7.8,38.2-10.3c4.9-0.7,7.8-0.2,8.3,3c1.3,8.8,1.9,23.1,0.8,31.4c-0.4,2.2-1.7,3.1-3.5,3.4
		c-4.2,0.6-15.5,0.7-29.2,2.8c-11.1,1.7-16.7,5.4-15.2,15.3c2.2,14.3,13.3,36.1,13.9,39.8c0.5,3-1.4,4.7-5.5,5.8
		c-1.8,0.5-7.8,1.7-13.6,2.5C789.8,212.4,784,213,781.9,213.1z"/>
</g>
<g class="st3">
	<path d="M876.3,131.5c-0.4-22,2.3-59.2,3.8-69.3c0.6-4.9,2.5-7.1,6.2-7.6c3.5-0.3,8.2-0.6,12.2-0.7c4.2-0.1,8,0.1,11,0.3
		c3.3,0.4,4.7,2.3,4.8,5.3c0.1,6.6-3.9,47.3-3.4,78.7c0.4,23.2,6.4,30.6,16.9,30.4c5.8-0.1,10.3-2.5,13.7-5.8
		c6.2-5.7,8.6-15.8,8.3-35c-0.6-38.6-5.2-63.1-5.3-67.8c-0.3-4.2,1.5-5.9,5.5-6.4c2.8-0.5,5.8-0.6,9.6-0.6c4.2-0.1,8.2-0.1,11.7,0.3
		c4.4,0.2,7,1.5,7.9,8.1c2.4,18.9,3.9,40,4.3,62.4c0.3,20.1-0.3,41.7-2.4,65.1c-0.4,6.1-3.6,8-8.1,8.6c-2.8,0.3-6.3,0.6-9.6,0.6
		c-3,0-6.1-0.1-8.4-0.3c-3.5-0.2-5.2-1.6-5.2-5.3c-0.1-3.3-1-4.7-3.6-4.6c-7.3,0.1-16.9,12.7-33.3,12.9
		C886.4,201.1,877.2,181.4,876.3,131.5z"/>
</g>
<g class="st3">
	<path d="M1122.8,126.4c-4.3,33.7-12.6,69.6-15.2,79.2c-1,3.9-3.5,5.5-6.6,5.3c-2.8-0.1-6.8-0.6-10.5-1.1c-4.6-0.6-8.8-1.1-12.7-2.1
		c-3.5-0.7-4.4-2.7-4.1-5.2c1.1-8.4,9.9-44.5,14.5-80.7c2.4-18.8,0.6-28.9-11.2-30.4c-6-0.8-11.9,0.6-16.5,3.8
		c-5.3,4.3-8.7,11.2-11.5,32.8c-3.9,30.6-4.8,63.6-5.5,69.4c-0.5,4.2-2.4,5.6-6.6,5.5c-3-0.2-6.3-0.6-9.8-1
		c-4.2-0.5-8.4-1.1-11.3-1.7c-3.9-0.7-6.1-2.2-5.9-7.8c0.6-17.9,2-40.3,5.3-65.8c2.4-19,5.7-39.6,10.4-61.7
		c1.3-6.7,5.3-8.1,10.2-7.7c3.3-0.1,6.8,0.4,10.3,0.8c3,0.4,6,0.8,8.6,1.3c3.7,0.9,5.1,2.5,4.7,6c-0.4,2.8,0.2,4.3,2.3,4.5
		c6,0.8,17.8-9.8,35.2-7.6C1119,65,1128.4,82.2,1122.8,126.4z"/>
</g>
<g class="st3">
	<path d="M1218.1,86.9c9.5,2.6,13.9,6,18,7.1c4.7,1.3,9.1-4.1,14.1-8.3c4.4-4.6,8.1-6.5,10.8-5.8c5.2,1.4,13.9,16.6,12.4,22.3
		c-0.4,1.4-1.4,2.5-3.2,3c-5.7,1.4-11.5,3.2-12.9,8.4c-1.6,5.9,7.2,12.9,1.9,32.3c-7.1,26-27.6,39.1-62.8,29.5
		c-21.2-5.8-30.6,3.6-32.9,12.4c-1.6,5.9,0.7,8.9,6.4,10.5c11.5,3.1,29.6-3.6,48.3,1.5c9.3,2.5,16.1,6.8,20,11.2
		c2.4,2.8,2.7,6.1,1.9,9.2c-2.3,8.6-13.5,24.7-19.8,23c-1.4-0.4-2.8-1.5-3.6-2.7c-3.5-5.1-7.8-9.6-16.8-12.1
		c-13.6-3.7-26.1,3.1-44.6-1.9c-19.2-5.2-27.2-17.8-22.3-35.9c4.4-16,15.7-24.8,25.3-29.7c1.9-0.9,3-2.1,3.4-3.5
		c0.3-1.1,0.2-2.4-0.7-3.8c-4.7-7.8-9.1-20.2-4.6-36.7C1163.4,90.2,1187.4,78.6,1218.1,86.9z M1203.1,149.3
		c11.3,3.1,22.3-1.9,25.5-13.5c2.9-10.6-2.4-20.8-14.8-24.1c-12.9-3.5-22.6,2.8-25.5,13.5C1185.3,136.2,1191.1,146,1203.1,149.3z"/>
</g>
<g class="st3">
	<path d="M1282.8,264.1c-4-1.3-8.9-2.9-13.5-4.7c-4.8-1.9-9.1-3.8-13.2-5.6c-2.1-1.1-4.2-2.9-3.2-7.3c4.3-15.1,10.2-32.9,17.3-51.3
		c9.9-25.8,21.9-52.2,33.4-72.4c2.6-4,4.8-3.9,7.7-3.1c3.6,1.1,6.9,2.2,10.2,3.4c3.3,1.3,6.5,2.7,9.9,4.3c2.8,1.3,3.8,3.2,2.8,5.8
		c-1.8,4.6-11.7,25.1-23.5,55.9c-14.6,38-19.9,65.8-22.5,72.6C1287.1,264.5,1285,264.7,1282.8,264.1z M1313,89.4
		c3.8-9.8,12.6-13.7,25.7-8.7c13.8,5.3,16.8,13.7,13,23.6c-3.7,9.6-11.4,13.4-25.2,8.1C1313.3,107.3,1309.3,99,1313,89.4z"/>
</g>
<g class="st3">
	<path d="M1315.5,243.8c4.8-1.9,11.2-3.6,17.3-4.7c2.7-0.3,4.8-0.4,6.7,0.5c7.4,3.4,12.1,15.8,6,29c-9.8,21.5-34,25.3-42.9,21.2
		c-1.7-0.8-2.6-2.7-1.6-4.9c1.4-3,5.3-6,8.4-12.6c2.6-5.7,3.9-12.4,2.2-19.3c-0.9-2.5-1.1-4.4-0.4-5.8
		C1311.7,245.9,1312.9,244.9,1315.5,243.8z"/>
</g>
<text transform="matrix(0.8867 0.4624 -0.4624 0.8867 1341.0844 290.1221)" class="st4 st5"> </text>
<g class="st3">
	<path d="M1399.9,321.6c-2.6-2-4-4.2-2.7-8.4c2.8-10.1,15.9-35.4,33.8-63.6c17-26.6,38.4-55.5,59.1-75.8c2.4-2.4,5.3-1.9,7.6-0.7
		c10.5,5.3,23.3,13.1,35.7,21.1c12,7.7,22.8,15.1,31,21.1c3.1,2.5,2.7,4.5,1.4,6.5c-4.1,6.5-15.4,19-22.5,23.7c-1.5,1-2.9,0.6-3.9,0
		c-1.2-0.8-2.3-2-3.4-3.3c-3.5-4.5-9.6-11.1-20.2-17.9c-7.1-4.5-11.2-6-15-5.1c-5.5,1.2-16.4,15.3-25.6,29.8
		c-4.4,6.9-3.3,10.4,2.2,13.9c8.5,5.4,21.3,8.3,35.5,17.4c4.1,2.6,6,4.9,4.3,7.7c-4.8,7.5-13.8,18.7-20.1,24.1
		c-1.7,1.4-3.3,1.2-4.9,0.2c-3.6-2.3-12.1-9.7-23.8-17.1c-9.5-6-16.1-6.9-21.5,1.6c-7.8,12.2-13.7,35.9-15.7,39.1
		c-1.6,2.6-4.2,2.6-8,0.8c-1.7-0.8-7-3.9-11.9-7C1406.4,326.2,1401.6,322.9,1399.9,321.6z"/>
</g>
<g class="st3">
	<path d="M1516.5,407.8c-30.6-25.4-21.9-57.8,4.3-89.3c35.2-42.3,72-42.6,98.3-20.8c16.9,14.1,22.9,34.6,6.8,54
		c-25.7,30.9-56.6,8.3-80.2,4.5c-6-1.6-9.4-1.1-12,1.9c-6.1,7.4-6.4,17.5,4.2,26.4c13.1,10.9,28.1,13,44.3,7.1
		c1.5-0.3,2.5-0.1,3.2,0.5c2.3,1.9,0.9,7.7-5.6,15.5C1563.7,427.1,1536.6,424.6,1516.5,407.8z M1599,316.4
		c-13.3-11.1-32.6-4.3-46.1,11.9c-1.6,2-2.3,4.2-0.7,5.5c1.1,0.9,2.1,1.5,3.7,1.8c14,1.9,35.7,10.2,44.9-1
		C1605.8,328.7,1605.4,321.7,1599,316.4z"/>
</g>
<g class="st3">
	<path d="M1595.8,416.4c23.7-21.9,51.8-12.5,78.3,9.3c5.1,4.2,8.6,4.5,11.9,1.5c8.3-7.6,9.1-16-0.3-26.2c-8.3-8.9-20-13.7-33.7-14.8
		c-1.7-0.1-3-0.4-3.8-1.3c-0.8-0.9-1.1-1.9-1-3.5c0.2-4.6,2.6-11,7.6-15.6c11.2-10.3,33.3-4.6,53.6,17.4c24.9,27,19.4,49.3-5.5,72.3
		c-13.9,12.9-29.7,26.1-40.9,36.5c-9.3,8.6-19.4,20.4-21.6,22.5c-2.9,2.7-5.6,2.9-8.8,0.5c-5.8-3.9-22.8-21.6-31.4-30.9
		C1576.4,458.2,1574.5,436.1,1595.8,416.4z M1657.2,454c4.6-4.3,5.4-6.6,2.5-9.7c-12.4-13.4-28.1-17.4-39.5-6.9
		c-9.5,8.7-6.8,18.1,4.7,30.7c6.5,7,10.4,6,15.2,1.6L1657.2,454z"/>
</g>
<g class="st3">
	<path d="M1691.9,554.4c6.5,9.1,13.2,10.4,19.7,5.8c6.3-4.5,7.8-11.3,4.8-28.7c-4.4-25.1-5.8-43.6,14.3-58
		c20.9-15,45.7-9.3,63.6,15.8c8.2,11.4,13.3,25,13.8,33.8c0.4,3.8-0.5,5.8-3.1,7.7c-5.3,3.8-18,7.1-24.8,7.9
		c-1.9,0.2-3.5-0.4-4.1-1.4s-1-2.2-0.6-3.6c1.5-10.3-0.1-22.7-6.6-31.8c-5.6-7.8-12.7-9.3-18.2-5.4c-6.5,4.6-6.3,10.9-3.2,28.5
		c4.1,23.8,6.7,45.6-15,61.1c-23.4,16.7-46.3,10.4-63.6-13.8c-17.5-24.6-15.4-47.7,2.3-60.3c6.9-4.9,13.4-7,17.3-7.2
		c1.9-0.2,3.3,0.2,4.1,1.4c0.7,1,0.6,2.4-0.1,3.8C1684.7,522.2,1681.3,539.6,1691.9,554.4z"/>
	<path d="M1879.3,554.2c1.2,1.7,0.6,3.3-0.7,4.2c-3,2.2-19.1,4.2-27.9,10.5c-1.9,1.4-2,2.9-0.5,5c1.9,2.7,6.5,7.5,8.9,10.9
		c1.2,1.7,0.8,3.5-1.2,5.5c-2.1,2.3-5.4,5-8.8,7.4c-4,2.9-8.1,5.2-12.2,7c-2,0.8-3.4,0.1-4.3-1.2c-2.2-3-4.2-7.9-7.2-12.1
		c-2-2.9-4.5-2.3-8.9,0.4c-4.5,2.6-10.3,6.2-16.2,10.4c-20.2,14.4-42.2,35.9-56.6,52.8c-0.8,0.9-1.4,1.6-2,2c-1.5,1.1-3,1-4.7,0.2
		c-8.2-3.4-18.3-13.1-22.8-19.4c-1.8-2.5-2.1-4.5-0.7-6.7c9.2-12.9,26.4-27.5,44.5-40.4c17.7-12.7,33.6-21.7,40.5-25.8
		c2.8-1.7,3.1-3.3,1.8-5.6c-0.5-1.1-1.2-2-1.4-2.7c-1.2-2-1.1-3.5,2-5.7c5.5-3.9,12.1-8.1,18.9-11.8c3.8-1.6,5.5-1.1,6.9,0.8l2,2.9
		c1.9,2.7,5.4,0.7,12.5-3.5c8.9-5.2,10.3-5.7,15.2-3.7C1866.6,540,1877.3,551.4,1879.3,554.2z"/>
</g>
<text transform="matrix(1 0 0 1 -287.4997 -201.2521)" class="st1 st2"> </text>
</svg>
